<svg width="527" height="479" viewBox="0 0 527 479" fill="none" xmlns="http://www.w3.org/2000/svg">
<path d="M164 85.7143C164 131.159 127.287 168 82 168C36.7126 168 5.69222 154.286 0 85.7143C0 40.2691 69.7404 0 115.028 0C160.315 0 164 40.2691 164 85.7143Z" fill="#E78CCD"/>
<path d="M500.812 201.043C540.941 361.098 475.589 408.483 264.626 424.277C129.335 448.496 25 417.969 25 301.077C25 184.185 97.2212 84.1612 224.497 84.1612C351.773 84.1612 442.339 74.684 500.812 201.043Z" fill="#9BCCDC" fill-opacity="0.8"/>
<path d="M178.2 224V222.68C179.213 222.627 179.907 222.4 180.28 222C180.653 221.573 180.853 221 180.88 220.28C180.933 219.533 180.96 218.693 180.96 217.76V200.48C180.96 199.947 180.973 199.44 181 198.96C181.027 198.453 181.053 198 181.08 197.6C180.6 197.627 180.12 197.653 179.64 197.68C179.16 197.707 178.68 197.733 178.2 197.76V196H196.76L196.96 203H195.64C195.64 201.427 195.387 200.24 194.88 199.44C194.373 198.613 193.707 198.067 192.88 197.8C192.053 197.507 191.133 197.373 190.12 197.4L187.2 197.48C186.213 197.507 185.533 197.747 185.16 198.2C184.787 198.627 184.573 199.2 184.52 199.92C184.467 200.64 184.44 201.467 184.44 202.4V209.28L191.4 209.32L191.12 205.84H192.88V214.28H191.6C191.6 213.08 191.427 212.227 191.08 211.72C190.76 211.213 190.253 210.907 189.56 210.8C188.867 210.693 187.96 210.667 186.84 210.72L184.44 210.84V219.24C184.44 219.96 184.427 220.587 184.4 221.12C184.4 221.627 184.373 222.053 184.32 222.4C184.773 222.373 185.227 222.36 185.68 222.36C186.133 222.333 186.587 222.307 187.04 222.28C187.493 222.253 187.947 222.24 188.4 222.24V224H178.2ZM199.283 222.8C200.11 222.8 200.683 222.6 201.003 222.2C201.323 221.773 201.51 221.2 201.563 220.48C201.617 219.733 201.643 218.88 201.643 217.92V208.8C201.643 208.373 201.643 207.947 201.643 207.52C201.67 207.093 201.723 206.653 201.803 206.2C201.323 206.227 200.843 206.253 200.363 206.28C199.91 206.28 199.443 206.293 198.963 206.32V204.68H200.203C201.35 204.68 202.137 204.573 202.563 204.36C203.017 204.12 203.39 203.867 203.683 203.6H204.843C204.897 204.027 204.937 204.56 204.963 205.2C204.99 205.813 205.017 206.6 205.043 207.56C205.443 206.893 205.99 206.24 206.683 205.6C207.377 204.96 208.15 204.427 209.003 204C209.883 203.573 210.803 203.36 211.763 203.36C212.51 203.36 213.163 203.56 213.723 203.96C214.283 204.36 214.563 205 214.563 205.88C214.563 206.093 214.497 206.36 214.363 206.68C214.23 206.973 214.017 207.24 213.723 207.48C213.43 207.693 213.043 207.8 212.563 207.8C211.977 207.773 211.51 207.547 211.163 207.12C210.817 206.667 210.683 206.147 210.763 205.56C210.097 205.533 209.403 205.707 208.683 206.08C207.99 206.453 207.337 206.973 206.723 207.64C206.11 208.28 205.563 209.04 205.083 209.92L205.123 219.76C205.123 220.293 205.11 220.773 205.083 221.2C205.083 221.6 205.043 222.027 204.963 222.48C205.39 222.453 205.803 222.44 206.203 222.44C206.63 222.413 207.057 222.387 207.483 222.36V224H199.283V222.8ZM225.995 224.64C224.155 224.64 222.488 224.213 220.995 223.36C219.528 222.48 218.368 221.253 217.515 219.68C216.661 218.08 216.235 216.2 216.235 214.04C216.235 212.173 216.648 210.427 217.475 208.8C218.328 207.173 219.515 205.867 221.035 204.88C222.555 203.867 224.315 203.36 226.315 203.36C227.435 203.36 228.475 203.547 229.435 203.92C230.421 204.267 231.288 204.813 232.035 205.56C232.781 206.28 233.368 207.2 233.795 208.32C234.221 209.413 234.435 210.707 234.435 212.2L220.355 212.44C220.355 214.467 220.568 216.253 220.995 217.8C221.448 219.32 222.168 220.507 223.155 221.36C224.141 222.187 225.408 222.6 226.955 222.6C227.781 222.6 228.621 222.453 229.475 222.16C230.355 221.867 231.168 221.467 231.915 220.96C232.661 220.453 233.261 219.893 233.715 219.28L234.675 220.08C233.955 221.2 233.088 222.093 232.075 222.76C231.061 223.427 230.021 223.907 228.955 224.2C227.888 224.493 226.901 224.64 225.995 224.64ZM220.475 210.76H230.675C230.675 209.8 230.528 208.88 230.235 208C229.968 207.093 229.515 206.36 228.875 205.8C228.235 205.213 227.395 204.92 226.355 204.92C224.808 204.92 223.515 205.387 222.475 206.32C221.461 207.227 220.795 208.707 220.475 210.76ZM237.994 224V222.8C238.821 222.8 239.394 222.6 239.714 222.2C240.034 221.773 240.221 221.2 240.274 220.48C240.328 219.733 240.354 218.88 240.354 217.92L240.394 208.8C240.394 208.373 240.394 207.947 240.394 207.52C240.421 207.093 240.474 206.653 240.554 206.2C240.074 206.227 239.594 206.253 239.114 206.28C238.661 206.307 238.194 206.333 237.714 206.36V204.68C238.888 204.68 239.768 204.627 240.354 204.52C240.968 204.413 241.421 204.28 241.714 204.12C242.008 203.96 242.248 203.787 242.434 203.6H243.594C243.621 203.787 243.634 204 243.634 204.24C243.661 204.48 243.688 204.747 243.714 205.04C243.741 205.333 243.754 205.667 243.754 206.04C244.341 205.533 244.981 205.08 245.674 204.68C246.394 204.28 247.141 203.96 247.914 203.72C248.714 203.48 249.501 203.36 250.274 203.36C252.594 203.36 254.288 204.093 255.354 205.56C256.421 207 256.954 209.253 256.954 212.32V219.76C256.954 220.293 256.941 220.773 256.914 221.2C256.914 221.6 256.874 222.027 256.794 222.48C257.221 222.453 257.634 222.44 258.034 222.44C258.461 222.413 258.888 222.387 259.314 222.36V224H251.154V222.8C251.981 222.8 252.554 222.6 252.874 222.2C253.194 221.773 253.381 221.2 253.434 220.48C253.488 219.733 253.514 218.88 253.514 217.92V212.32C253.488 210.027 253.101 208.293 252.354 207.12C251.634 205.947 250.488 205.373 248.914 205.4C247.954 205.427 247.008 205.68 246.074 206.16C245.168 206.64 244.408 207.253 243.794 208C243.821 208.213 243.834 208.453 243.834 208.72C243.834 208.987 243.834 209.267 243.834 209.56L243.794 219.76C243.794 220.293 243.781 220.773 243.754 221.2C243.754 221.6 243.714 222.027 243.634 222.48C244.061 222.453 244.474 222.44 244.874 222.44C245.301 222.413 245.728 222.387 246.154 222.36V224H237.994ZM271.931 234.84C269.531 234.84 267.598 234.573 266.131 234.04C264.665 233.507 263.598 232.827 262.931 232C262.265 231.173 261.931 230.32 261.931 229.44C261.931 228.613 262.118 227.88 262.491 227.24C262.891 226.627 263.371 226.093 263.931 225.64C264.518 225.187 265.078 224.853 265.611 224.64C264.758 224.347 264.078 223.96 263.571 223.48C263.091 222.973 262.851 222.307 262.851 221.48C262.851 220.547 263.225 219.68 263.971 218.88C264.718 218.053 265.678 217.547 266.851 217.36C265.625 216.773 264.638 215.96 263.891 214.92C263.171 213.88 262.811 212.667 262.811 211.28C262.811 209.68 263.225 208.293 264.051 207.12C264.878 205.92 265.931 205 267.211 204.36C268.518 203.693 269.865 203.36 271.251 203.36C272.131 203.36 273.011 203.493 273.891 203.76C274.771 204 275.585 204.36 276.331 204.84C276.598 204.093 276.971 203.427 277.451 202.84C277.958 202.253 278.531 201.8 279.171 201.48C279.811 201.133 280.478 200.96 281.171 200.96C281.865 200.96 282.385 201.147 282.731 201.52C283.105 201.867 283.291 202.347 283.291 202.96C283.291 203.147 283.238 203.373 283.131 203.64C283.025 203.907 282.838 204.133 282.571 204.32C282.331 204.507 281.998 204.6 281.571 204.6C281.118 204.6 280.745 204.467 280.451 204.2C280.158 203.933 279.971 203.6 279.891 203.2C279.225 203.307 278.705 203.627 278.331 204.16C277.958 204.667 277.705 205.227 277.571 205.84C278.211 206.427 278.718 207.133 279.091 207.96C279.491 208.787 279.691 209.667 279.691 210.6C279.691 212.093 279.291 213.427 278.491 214.6C277.718 215.773 276.691 216.693 275.411 217.36C274.131 218 272.745 218.32 271.251 218.32C270.745 218.32 270.305 218.293 269.931 218.24C269.558 218.16 269.105 218.12 268.571 218.12C267.585 218.12 266.785 218.36 266.171 218.84C265.558 219.32 265.345 219.893 265.531 220.56C265.745 221.2 266.398 221.613 267.491 221.8C268.585 221.96 270.051 222.08 271.891 222.16C273.945 222.24 275.705 222.48 277.171 222.88C278.638 223.28 279.758 223.893 280.531 224.72C281.331 225.573 281.731 226.72 281.731 228.16C281.731 229.227 281.438 230.173 280.851 231C280.291 231.853 279.531 232.56 278.571 233.12C277.638 233.68 276.585 234.107 275.411 234.4C274.265 234.693 273.105 234.84 271.931 234.84ZM271.891 233.28C274.185 233.28 275.971 232.853 277.251 232C278.531 231.147 279.171 230.147 279.171 229C279.171 228.013 278.838 227.253 278.171 226.72C277.505 226.213 276.598 225.853 275.451 225.64C274.305 225.453 272.985 225.347 271.491 225.32C270.771 225.293 270.065 225.253 269.371 225.2C268.678 225.173 268.011 225.107 267.371 225C266.651 225.48 266.091 226.067 265.691 226.76C265.291 227.453 265.091 228.187 265.091 228.96C265.091 230.267 265.705 231.307 266.931 232.08C268.185 232.88 269.838 233.28 271.891 233.28ZM271.371 216.88C272.358 216.88 273.171 216.64 273.811 216.16C274.478 215.68 274.971 215.027 275.291 214.2C275.638 213.373 275.811 212.44 275.811 211.4C275.811 210.227 275.638 209.133 275.291 208.12C274.945 207.107 274.425 206.293 273.731 205.68C273.065 205.067 272.211 204.76 271.171 204.76C269.731 204.76 268.611 205.307 267.811 206.4C267.038 207.467 266.651 208.8 266.651 210.4C266.651 211.68 266.838 212.813 267.211 213.8C267.585 214.76 268.118 215.52 268.811 216.08C269.531 216.613 270.385 216.88 271.371 216.88ZM284.977 222.8C285.804 222.8 286.377 222.6 286.697 222.2C287.017 221.773 287.204 221.2 287.257 220.48C287.311 219.733 287.337 218.88 287.337 217.92V199C287.337 198.573 287.337 198.173 287.337 197.8C287.364 197.4 287.404 196.933 287.457 196.4C286.977 196.427 286.497 196.453 286.017 196.48C285.564 196.507 285.097 196.533 284.617 196.56V194.88C285.791 194.88 286.697 194.827 287.337 194.72C288.004 194.613 288.497 194.48 288.817 194.32C289.164 194.16 289.431 193.987 289.617 193.8H290.777L290.817 219.76C290.817 220.293 290.804 220.773 290.777 221.2C290.751 221.6 290.697 222.027 290.617 222.48C291.044 222.453 291.457 222.44 291.857 222.44C292.284 222.413 292.711 222.387 293.137 222.36V224H284.977V222.8ZM296.276 222.8C297.102 222.8 297.676 222.6 297.996 222.2C298.316 221.773 298.502 221.2 298.556 220.48C298.609 219.733 298.636 218.88 298.636 217.92V208.8C298.636 208.373 298.649 207.973 298.676 207.6C298.702 207.2 298.742 206.733 298.796 206.2C298.316 206.227 297.836 206.253 297.356 206.28C296.902 206.307 296.436 206.333 295.956 206.36V204.68C297.129 204.68 298.036 204.627 298.676 204.52C299.316 204.413 299.796 204.28 300.116 204.12C300.462 203.96 300.729 203.787 300.916 203.6H302.076V219.76C302.076 220.293 302.062 220.773 302.036 221.2C302.036 221.6 301.996 222.027 301.916 222.48C302.342 222.453 302.756 222.44 303.156 222.44C303.582 222.413 304.009 222.387 304.436 222.36V224H296.276V222.8ZM300.156 199.64C299.596 199.64 299.102 199.413 298.676 198.96C298.249 198.507 298.036 197.947 298.036 197.28C298.036 196.613 298.249 196.053 298.676 195.6C299.129 195.12 299.636 194.88 300.196 194.88C300.809 194.88 301.316 195.12 301.716 195.6C302.142 196.053 302.356 196.613 302.356 197.28C302.356 197.947 302.129 198.507 301.676 198.96C301.249 199.413 300.742 199.64 300.156 199.64ZM315.726 224.64C314.392 224.64 313.206 224.453 312.166 224.08C311.126 223.733 310.272 223.333 309.606 222.88L309.766 224.28H308.086L307.846 217.4H309.086C309.139 218.493 309.446 219.48 310.006 220.36C310.566 221.213 311.286 221.88 312.166 222.36C313.046 222.84 313.992 223.08 315.006 223.08C315.699 223.08 316.379 222.973 317.046 222.76C317.712 222.52 318.272 222.173 318.726 221.72C319.179 221.24 319.406 220.64 319.406 219.92C319.406 219.173 319.179 218.56 318.726 218.08C318.299 217.573 317.726 217.133 317.006 216.76C316.286 216.387 315.512 216.04 314.686 215.72C313.886 215.4 313.086 215.067 312.286 214.72C311.486 214.373 310.739 213.96 310.046 213.48C309.379 213 308.846 212.413 308.446 211.72C308.046 211.027 307.846 210.173 307.846 209.16C307.846 208.6 307.952 207.987 308.166 207.32C308.379 206.653 308.739 206.027 309.246 205.44C309.752 204.827 310.446 204.333 311.326 203.96C312.206 203.56 313.326 203.36 314.686 203.36C315.406 203.36 316.206 203.48 317.086 203.72C317.966 203.96 318.819 204.413 319.646 205.08L319.566 203.56H321.246V210.56H319.966C319.912 209.627 319.699 208.733 319.326 207.88C318.952 207 318.406 206.28 317.686 205.72C316.966 205.133 316.032 204.84 314.886 204.84C313.659 204.84 312.699 205.147 312.006 205.76C311.312 206.373 310.966 207.08 310.966 207.88C310.966 208.707 311.219 209.4 311.726 209.96C312.259 210.493 312.939 210.96 313.766 211.36C314.592 211.76 315.472 212.147 316.406 212.52C317.419 212.947 318.406 213.413 319.366 213.92C320.326 214.427 321.112 215.067 321.726 215.84C322.339 216.587 322.646 217.56 322.646 218.76C322.646 220.093 322.299 221.2 321.606 222.08C320.939 222.96 320.072 223.6 319.006 224C317.966 224.427 316.872 224.64 315.726 224.64ZM338.881 222.8C339.708 222.8 340.281 222.6 340.601 222.2C340.921 221.773 341.108 221.2 341.161 220.48C341.215 219.733 341.241 218.88 341.241 217.92V212.32C341.241 210.027 340.868 208.307 340.121 207.16C339.401 206.013 338.255 205.453 336.681 205.48C335.695 205.507 334.721 205.747 333.761 206.2C332.828 206.653 332.068 207.24 331.481 207.96V219.76C331.481 220.293 331.468 220.773 331.441 221.2C331.415 221.6 331.361 222.027 331.281 222.48C331.708 222.453 332.121 222.44 332.521 222.44C332.948 222.413 333.375 222.387 333.801 222.36V224H325.641V222.8C326.468 222.8 327.041 222.6 327.361 222.2C327.681 221.773 327.868 221.2 327.921 220.48C328.001 219.733 328.041 218.88 328.041 217.92V199C328.041 198.573 328.041 198.173 328.041 197.8C328.068 197.4 328.108 196.933 328.161 196.4C327.681 196.427 327.201 196.453 326.721 196.48C326.268 196.507 325.801 196.533 325.321 196.56V194.88C326.495 194.88 327.401 194.827 328.041 194.72C328.708 194.613 329.201 194.48 329.521 194.32C329.868 194.16 330.135 193.987 330.321 193.8H331.481V206C332.068 205.493 332.721 205.053 333.441 204.68C334.188 204.28 334.948 203.96 335.721 203.72C336.521 203.48 337.295 203.36 338.041 203.36C340.361 203.36 342.028 204.093 343.041 205.56C344.081 207 344.615 209.253 344.641 212.32L344.681 219.76C344.681 220.293 344.668 220.773 344.641 221.2C344.641 221.6 344.601 222.027 344.521 222.48C344.948 222.453 345.361 222.44 345.761 222.44C346.188 222.413 346.615 222.387 347.041 222.36V224H338.881V222.8Z" fill="black"/>
<path d="M178.2 298V296.68C179.213 296.627 179.907 296.4 180.28 296C180.653 295.573 180.853 295 180.88 294.28C180.933 293.533 180.96 292.693 180.96 291.76V274.48C180.96 273.947 180.973 273.44 181 272.96C181.027 272.453 181.053 272 181.08 271.6C180.6 271.627 180.12 271.653 179.64 271.68C179.16 271.707 178.68 271.733 178.2 271.76V270H196.76L196.96 277H195.64C195.64 275.427 195.387 274.24 194.88 273.44C194.373 272.613 193.707 272.067 192.88 271.8C192.053 271.507 191.133 271.373 190.12 271.4L187.2 271.48C186.213 271.507 185.533 271.747 185.16 272.2C184.787 272.627 184.573 273.2 184.52 273.92C184.467 274.64 184.44 275.467 184.44 276.4V283.28L191.4 283.32L191.12 279.84H192.88V288.28H191.6C191.6 287.08 191.427 286.227 191.08 285.72C190.76 285.213 190.253 284.907 189.56 284.8C188.867 284.693 187.96 284.667 186.84 284.72L184.44 284.84V293.24C184.44 293.96 184.427 294.587 184.4 295.12C184.4 295.627 184.373 296.053 184.32 296.4C184.773 296.373 185.227 296.36 185.68 296.36C186.133 296.333 186.587 296.307 187.04 296.28C187.493 296.253 187.947 296.24 188.4 296.24V298H178.2ZM199.283 296.8C200.11 296.8 200.683 296.6 201.003 296.2C201.323 295.773 201.51 295.2 201.563 294.48C201.617 293.733 201.643 292.88 201.643 291.92V282.8C201.643 282.373 201.643 281.947 201.643 281.52C201.67 281.093 201.723 280.653 201.803 280.2C201.323 280.227 200.843 280.253 200.363 280.28C199.91 280.28 199.443 280.293 198.963 280.32V278.68H200.203C201.35 278.68 202.137 278.573 202.563 278.36C203.017 278.12 203.39 277.867 203.683 277.6H204.843C204.897 278.027 204.937 278.56 204.963 279.2C204.99 279.813 205.017 280.6 205.043 281.56C205.443 280.893 205.99 280.24 206.683 279.6C207.377 278.96 208.15 278.427 209.003 278C209.883 277.573 210.803 277.36 211.763 277.36C212.51 277.36 213.163 277.56 213.723 277.96C214.283 278.36 214.563 279 214.563 279.88C214.563 280.093 214.497 280.36 214.363 280.68C214.23 280.973 214.017 281.24 213.723 281.48C213.43 281.693 213.043 281.8 212.563 281.8C211.977 281.773 211.51 281.547 211.163 281.12C210.817 280.667 210.683 280.147 210.763 279.56C210.097 279.533 209.403 279.707 208.683 280.08C207.99 280.453 207.337 280.973 206.723 281.64C206.11 282.28 205.563 283.04 205.083 283.92L205.123 293.76C205.123 294.293 205.11 294.773 205.083 295.2C205.083 295.6 205.043 296.027 204.963 296.48C205.39 296.453 205.803 296.44 206.203 296.44C206.63 296.413 207.057 296.387 207.483 296.36V298H199.283V296.8ZM228.475 298C228.395 297.547 228.341 297.147 228.315 296.8C228.288 296.453 228.248 296.093 228.195 295.72C227.288 296.627 226.301 297.347 225.235 297.88C224.195 298.387 223.088 298.64 221.915 298.64C219.888 298.64 218.381 298.187 217.395 297.28C216.408 296.347 215.915 295.213 215.915 293.88C215.915 292.653 216.288 291.6 217.035 290.72C217.808 289.813 218.795 289.08 219.995 288.52C221.221 287.933 222.541 287.507 223.955 287.24C225.395 286.947 226.781 286.813 228.115 286.84V284.36C228.115 283.427 228.035 282.547 227.875 281.72C227.715 280.893 227.368 280.213 226.835 279.68C226.301 279.147 225.448 278.867 224.275 278.84C223.501 278.813 222.701 278.96 221.875 279.28C221.075 279.6 220.488 280.147 220.115 280.92C220.328 281.133 220.461 281.387 220.515 281.68C220.595 281.947 220.635 282.2 220.635 282.44C220.635 282.76 220.501 283.133 220.235 283.56C219.968 283.96 219.501 284.147 218.835 284.12C218.275 284.12 217.848 283.933 217.555 283.56C217.261 283.16 217.115 282.693 217.115 282.16C217.115 281.253 217.448 280.44 218.115 279.72C218.808 279 219.755 278.427 220.955 278C222.155 277.573 223.515 277.36 225.035 277.36C227.275 277.36 228.928 277.96 229.995 279.16C231.061 280.333 231.581 282.2 231.555 284.76C231.555 285.747 231.555 286.747 231.555 287.76C231.555 288.747 231.541 289.747 231.515 290.76C231.515 291.747 231.515 292.747 231.515 293.76C231.515 294.187 231.501 294.613 231.475 295.04C231.448 295.467 231.408 295.947 231.355 296.48C231.835 296.453 232.301 296.427 232.755 296.4C233.235 296.373 233.715 296.347 234.195 296.32V298H228.475ZM228.115 288.2C227.208 288.227 226.248 288.347 225.235 288.56C224.248 288.747 223.328 289.04 222.475 289.44C221.648 289.84 220.968 290.373 220.435 291.04C219.928 291.68 219.688 292.467 219.715 293.4C219.768 294.387 220.088 295.133 220.675 295.64C221.288 296.12 222.008 296.36 222.835 296.36C223.928 296.36 224.875 296.16 225.675 295.76C226.501 295.333 227.315 294.747 228.115 294C228.088 293.707 228.075 293.387 228.075 293.04C228.075 292.693 228.075 292.333 228.075 291.96C228.075 291.827 228.075 291.4 228.075 290.68C228.101 289.96 228.115 289.133 228.115 288.2ZM236.94 298V296.8C237.766 296.8 238.34 296.6 238.66 296.2C238.98 295.773 239.166 295.2 239.22 294.48C239.273 293.733 239.3 292.88 239.3 291.92L239.34 282.8C239.34 282.373 239.34 281.947 239.34 281.52C239.366 281.093 239.42 280.653 239.5 280.2C239.02 280.227 238.54 280.253 238.06 280.28C237.606 280.307 237.14 280.333 236.66 280.36V278.68C237.833 278.68 238.713 278.627 239.3 278.52C239.913 278.413 240.366 278.28 240.66 278.12C240.953 277.96 241.193 277.787 241.38 277.6H242.54C242.566 277.787 242.58 278 242.58 278.24C242.606 278.48 242.633 278.747 242.66 279.04C242.686 279.333 242.7 279.667 242.7 280.04C243.286 279.533 243.926 279.08 244.62 278.68C245.34 278.28 246.086 277.96 246.86 277.72C247.66 277.48 248.446 277.36 249.22 277.36C251.54 277.36 253.233 278.093 254.3 279.56C255.366 281 255.9 283.253 255.9 286.32V293.76C255.9 294.293 255.886 294.773 255.86 295.2C255.86 295.6 255.82 296.027 255.74 296.48C256.166 296.453 256.58 296.44 256.98 296.44C257.406 296.413 257.833 296.387 258.26 296.36V298H250.1V296.8C250.926 296.8 251.5 296.6 251.82 296.2C252.14 295.773 252.326 295.2 252.38 294.48C252.433 293.733 252.46 292.88 252.46 291.92V286.32C252.433 284.027 252.046 282.293 251.3 281.12C250.58 279.947 249.433 279.373 247.86 279.4C246.9 279.427 245.953 279.68 245.02 280.16C244.113 280.64 243.353 281.253 242.74 282C242.766 282.213 242.78 282.453 242.78 282.72C242.78 282.987 242.78 283.267 242.78 283.56L242.74 293.76C242.74 294.293 242.726 294.773 242.7 295.2C242.7 295.6 242.66 296.027 242.58 296.48C243.006 296.453 243.42 296.44 243.82 296.44C244.246 296.413 244.673 296.387 245.1 296.36V298H236.94ZM270.877 308.84C268.477 308.84 266.543 308.573 265.077 308.04C263.61 307.507 262.543 306.827 261.877 306C261.21 305.173 260.877 304.32 260.877 303.44C260.877 302.613 261.063 301.88 261.437 301.24C261.837 300.627 262.317 300.093 262.877 299.64C263.463 299.187 264.023 298.853 264.557 298.64C263.703 298.347 263.023 297.96 262.517 297.48C262.037 296.973 261.797 296.307 261.797 295.48C261.797 294.547 262.17 293.68 262.917 292.88C263.663 292.053 264.623 291.547 265.797 291.36C264.57 290.773 263.583 289.96 262.837 288.92C262.117 287.88 261.757 286.667 261.757 285.28C261.757 283.68 262.17 282.293 262.997 281.12C263.823 279.92 264.877 279 266.157 278.36C267.463 277.693 268.81 277.36 270.197 277.36C271.077 277.36 271.957 277.493 272.837 277.76C273.717 278 274.53 278.36 275.277 278.84C275.543 278.093 275.917 277.427 276.397 276.84C276.903 276.253 277.477 275.8 278.117 275.48C278.757 275.133 279.423 274.96 280.117 274.96C280.81 274.96 281.33 275.147 281.677 275.52C282.05 275.867 282.237 276.347 282.237 276.96C282.237 277.147 282.183 277.373 282.077 277.64C281.97 277.907 281.783 278.133 281.517 278.32C281.277 278.507 280.943 278.6 280.517 278.6C280.063 278.6 279.69 278.467 279.397 278.2C279.103 277.933 278.917 277.6 278.837 277.2C278.17 277.307 277.65 277.627 277.277 278.16C276.903 278.667 276.65 279.227 276.517 279.84C277.157 280.427 277.663 281.133 278.037 281.96C278.437 282.787 278.637 283.667 278.637 284.6C278.637 286.093 278.237 287.427 277.437 288.6C276.663 289.773 275.637 290.693 274.357 291.36C273.077 292 271.69 292.32 270.197 292.32C269.69 292.32 269.25 292.293 268.877 292.24C268.503 292.16 268.05 292.12 267.517 292.12C266.53 292.12 265.73 292.36 265.117 292.84C264.503 293.32 264.29 293.893 264.477 294.56C264.69 295.2 265.343 295.613 266.437 295.8C267.53 295.96 268.997 296.08 270.837 296.16C272.89 296.24 274.65 296.48 276.117 296.88C277.583 297.28 278.703 297.893 279.477 298.72C280.277 299.573 280.677 300.72 280.677 302.16C280.677 303.227 280.383 304.173 279.797 305C279.237 305.853 278.477 306.56 277.517 307.12C276.583 307.68 275.53 308.107 274.357 308.4C273.21 308.693 272.05 308.84 270.877 308.84ZM270.837 307.28C273.13 307.28 274.917 306.853 276.197 306C277.477 305.147 278.117 304.147 278.117 303C278.117 302.013 277.783 301.253 277.117 300.72C276.45 300.213 275.543 299.853 274.397 299.64C273.25 299.453 271.93 299.347 270.437 299.32C269.717 299.293 269.01 299.253 268.317 299.2C267.623 299.173 266.957 299.107 266.317 299C265.597 299.48 265.037 300.067 264.637 300.76C264.237 301.453 264.037 302.187 264.037 302.96C264.037 304.267 264.65 305.307 265.877 306.08C267.13 306.88 268.783 307.28 270.837 307.28ZM270.317 290.88C271.303 290.88 272.117 290.64 272.757 290.16C273.423 289.68 273.917 289.027 274.237 288.2C274.583 287.373 274.757 286.44 274.757 285.4C274.757 284.227 274.583 283.133 274.237 282.12C273.89 281.107 273.37 280.293 272.677 279.68C272.01 279.067 271.157 278.76 270.117 278.76C268.677 278.76 267.557 279.307 266.757 280.4C265.983 281.467 265.597 282.8 265.597 284.4C265.597 285.68 265.783 286.813 266.157 287.8C266.53 288.76 267.063 289.52 267.757 290.08C268.477 290.613 269.33 290.88 270.317 290.88ZM283.923 296.8C284.749 296.8 285.323 296.6 285.643 296.2C285.963 295.773 286.149 295.2 286.203 294.48C286.256 293.733 286.283 292.88 286.283 291.92V273C286.283 272.573 286.283 272.173 286.283 271.8C286.309 271.4 286.349 270.933 286.403 270.4C285.923 270.427 285.443 270.453 284.963 270.48C284.509 270.507 284.043 270.533 283.563 270.56V268.88C284.736 268.88 285.643 268.827 286.283 268.72C286.949 268.613 287.443 268.48 287.763 268.32C288.109 268.16 288.376 267.987 288.563 267.8H289.723L289.763 293.76C289.763 294.293 289.749 294.773 289.723 295.2C289.696 295.6 289.643 296.027 289.563 296.48C289.989 296.453 290.403 296.44 290.803 296.44C291.229 296.413 291.656 296.387 292.083 296.36V298H283.923V296.8ZM307.381 298C307.301 297.547 307.248 297.147 307.221 296.8C307.194 296.453 307.154 296.093 307.101 295.72C306.194 296.627 305.208 297.347 304.141 297.88C303.101 298.387 301.994 298.64 300.821 298.64C298.794 298.64 297.288 298.187 296.301 297.28C295.314 296.347 294.821 295.213 294.821 293.88C294.821 292.653 295.194 291.6 295.941 290.72C296.714 289.813 297.701 289.08 298.901 288.52C300.128 287.933 301.448 287.507 302.861 287.24C304.301 286.947 305.688 286.813 307.021 286.84V284.36C307.021 283.427 306.941 282.547 306.781 281.72C306.621 280.893 306.274 280.213 305.741 279.68C305.208 279.147 304.354 278.867 303.181 278.84C302.408 278.813 301.608 278.96 300.781 279.28C299.981 279.6 299.394 280.147 299.021 280.92C299.234 281.133 299.368 281.387 299.421 281.68C299.501 281.947 299.541 282.2 299.541 282.44C299.541 282.76 299.408 283.133 299.141 283.56C298.874 283.96 298.408 284.147 297.741 284.12C297.181 284.12 296.754 283.933 296.461 283.56C296.168 283.16 296.021 282.693 296.021 282.16C296.021 281.253 296.354 280.44 297.021 279.72C297.714 279 298.661 278.427 299.861 278C301.061 277.573 302.421 277.36 303.941 277.36C306.181 277.36 307.834 277.96 308.901 279.16C309.968 280.333 310.488 282.2 310.461 284.76C310.461 285.747 310.461 286.747 310.461 287.76C310.461 288.747 310.448 289.747 310.421 290.76C310.421 291.747 310.421 292.747 310.421 293.76C310.421 294.187 310.408 294.613 310.381 295.04C310.354 295.467 310.314 295.947 310.261 296.48C310.741 296.453 311.208 296.427 311.661 296.4C312.141 296.373 312.621 296.347 313.101 296.32V298H307.381ZM307.021 288.2C306.114 288.227 305.154 288.347 304.141 288.56C303.154 288.747 302.234 289.04 301.381 289.44C300.554 289.84 299.874 290.373 299.341 291.04C298.834 291.68 298.594 292.467 298.621 293.4C298.674 294.387 298.994 295.133 299.581 295.64C300.194 296.12 300.914 296.36 301.741 296.36C302.834 296.36 303.781 296.16 304.581 295.76C305.408 295.333 306.221 294.747 307.021 294C306.994 293.707 306.981 293.387 306.981 293.04C306.981 292.693 306.981 292.333 306.981 291.96C306.981 291.827 306.981 291.4 306.981 290.68C307.008 289.96 307.021 289.133 307.021 288.2ZM315.846 296.8C316.673 296.8 317.246 296.6 317.566 296.2C317.886 295.773 318.073 295.2 318.126 294.48C318.179 293.733 318.206 292.88 318.206 291.92V282.8C318.206 282.373 318.219 281.973 318.246 281.6C318.273 281.2 318.313 280.733 318.366 280.2C317.886 280.227 317.406 280.253 316.926 280.28C316.473 280.307 316.006 280.333 315.526 280.36V278.68C316.699 278.68 317.606 278.627 318.246 278.52C318.886 278.413 319.366 278.28 319.686 278.12C320.033 277.96 320.299 277.787 320.486 277.6H321.646V293.76C321.646 294.293 321.633 294.773 321.606 295.2C321.606 295.6 321.566 296.027 321.486 296.48C321.913 296.453 322.326 296.44 322.726 296.44C323.153 296.413 323.579 296.387 324.006 296.36V298H315.846V296.8ZM319.726 273.64C319.166 273.64 318.673 273.413 318.246 272.96C317.819 272.507 317.606 271.947 317.606 271.28C317.606 270.613 317.819 270.053 318.246 269.6C318.699 269.12 319.206 268.88 319.766 268.88C320.379 268.88 320.886 269.12 321.286 269.6C321.713 270.053 321.926 270.613 321.926 271.28C321.926 271.947 321.699 272.507 321.246 272.96C320.819 273.413 320.313 273.64 319.726 273.64ZM335.296 298.64C333.963 298.64 332.776 298.453 331.736 298.08C330.696 297.733 329.843 297.333 329.176 296.88L329.336 298.28H327.656L327.416 291.4H328.656C328.709 292.493 329.016 293.48 329.576 294.36C330.136 295.213 330.856 295.88 331.736 296.36C332.616 296.84 333.563 297.08 334.576 297.08C335.269 297.08 335.949 296.973 336.616 296.76C337.283 296.52 337.843 296.173 338.296 295.72C338.749 295.24 338.976 294.64 338.976 293.92C338.976 293.173 338.749 292.56 338.296 292.08C337.869 291.573 337.296 291.133 336.576 290.76C335.856 290.387 335.083 290.04 334.256 289.72C333.456 289.4 332.656 289.067 331.856 288.72C331.056 288.373 330.309 287.96 329.616 287.48C328.949 287 328.416 286.413 328.016 285.72C327.616 285.027 327.416 284.173 327.416 283.16C327.416 282.6 327.523 281.987 327.736 281.32C327.949 280.653 328.309 280.027 328.816 279.44C329.323 278.827 330.016 278.333 330.896 277.96C331.776 277.56 332.896 277.36 334.256 277.36C334.976 277.36 335.776 277.48 336.656 277.72C337.536 277.96 338.389 278.413 339.216 279.08L339.136 277.56H340.816V284.56H339.536C339.483 283.627 339.269 282.733 338.896 281.88C338.523 281 337.976 280.28 337.256 279.72C336.536 279.133 335.603 278.84 334.456 278.84C333.229 278.84 332.269 279.147 331.576 279.76C330.883 280.373 330.536 281.08 330.536 281.88C330.536 282.707 330.789 283.4 331.296 283.96C331.829 284.493 332.509 284.96 333.336 285.36C334.163 285.76 335.043 286.147 335.976 286.52C336.989 286.947 337.976 287.413 338.936 287.92C339.896 288.427 340.683 289.067 341.296 289.84C341.909 290.587 342.216 291.56 342.216 292.76C342.216 294.093 341.869 295.2 341.176 296.08C340.509 296.96 339.643 297.6 338.576 298C337.536 298.427 336.443 298.64 335.296 298.64Z" fill="black"/>
<path d="M110.793 210.293C110.402 210.683 110.402 211.317 110.793 211.707L117.157 218.071C117.547 218.462 118.181 218.462 118.571 218.071C118.962 217.681 118.962 217.047 118.571 216.657L112.914 211L118.571 205.343C118.962 204.953 118.962 204.319 118.571 203.929C118.181 203.538 117.547 203.538 117.157 203.929L110.793 210.293ZM164 210H111.5V212H164V210Z" fill="black"/>
<path d="M401.207 288.207C401.598 287.817 401.598 287.183 401.207 286.793L394.843 280.429C394.453 280.038 393.819 280.038 393.429 280.429C393.038 280.819 393.038 281.453 393.429 281.843L399.086 287.5L393.429 293.157C393.038 293.547 393.038 294.181 393.429 294.571C393.819 294.962 394.453 294.962 394.843 294.571L401.207 288.207ZM352.5 288.5L400.5 288.5L400.5 286.5L352.5 286.5V288.5Z" fill="black"/>
<path d="M176 259H355" stroke="black" stroke-width="2"/>
<path d="M176 241H355" stroke="black" stroke-width="2"/>
<path d="M527 403.649C527 448.749 507.636 459.224 471.185 478.506C425.891 478.506 355 486.178 355 441.077C355 395.977 405.387 339 450.682 339C507.636 339 527 358.548 527 403.649Z" fill="#64C998" fill-opacity="0.5"/>
</svg>
