
<svg width="88" height="80" viewBox="0 0 88 80" fill="none" xmlns="http://www.w3.org/2000/svg">
<path d="M28.2427 14.6834C28.2427 22.4684 21.9203 28.7794 14.1213 28.7794C6.32233 28.7794 0.980265 26.4301 1.23273e-08 14.6834C1.23273e-08 6.89835 12.0101 0 19.8091 0C27.6081 0 28.2427 6.89835 28.2427 14.6834Z" fill="#E78CCD"/>
<path d="M84.8679 32.7269C91.7785 60.1452 80.5241 68.2625 44.1939 70.9683C20.8952 75.1171 2.92758 69.8876 2.92758 49.8633C2.92758 29.839 15.3649 12.7043 37.2833 12.7043C59.2017 12.7043 74.7981 11.0807 84.8679 32.7269Z" fill="#9BCCDC" fill-opacity="0.8"/>
<path d="M30.4382 37.7002V37.1062C30.8942 37.0822 31.2062 36.9802 31.3742 36.8002C31.5422 36.6082 31.6322 36.3502 31.6442 36.0262C31.6682 35.6902 31.6802 35.3122 31.6802 34.8922V27.1162C31.6802 26.8762 31.6862 26.6482 31.6982 26.4322C31.7102 26.2042 31.7222 26.0002 31.7342 25.8202C31.5182 25.8322 31.3022 25.8442 31.0862 25.8562C30.8702 25.8682 30.6542 25.8802 30.4382 25.8922V25.1002H38.7902L38.8802 28.2502H38.2862C38.2862 27.5422 38.1722 27.0082 37.9442 26.6482C37.7162 26.2762 37.4162 26.0302 37.0442 25.9102C36.6722 25.7782 36.2582 25.7182 35.8022 25.7302L34.4882 25.7662C34.0442 25.7782 33.7382 25.8862 33.5702 26.0902C33.4022 26.2822 33.3062 26.5402 33.2822 26.8642C33.2582 27.1882 33.2462 27.5602 33.2462 27.9802V31.0762L36.3782 31.0942L36.2522 29.5282H37.0442V33.3262H36.4682C36.4682 32.7862 36.3902 32.4022 36.2342 32.1742C36.0902 31.9462 35.8622 31.8082 35.5502 31.7602C35.2382 31.7122 34.8302 31.7002 34.3262 31.7242L33.2462 31.7782V35.5582C33.2462 35.8822 33.2402 36.1642 33.2282 36.4042C33.2282 36.6322 33.2162 36.8242 33.1922 36.9802C33.3962 36.9682 33.6002 36.9622 33.8042 36.9622C34.0082 36.9502 34.2122 36.9382 34.4162 36.9262C34.6202 36.9142 34.8242 36.9082 35.0282 36.9082V37.7002H30.4382ZM39.9257 37.1602C40.2977 37.1602 40.5557 37.0702 40.6997 36.8902C40.8437 36.6982 40.9277 36.4402 40.9517 36.1162C40.9757 35.7802 40.9877 35.3962 40.9877 34.9642V30.8602C40.9877 30.6682 40.9877 30.4762 40.9877 30.2842C40.9997 30.0922 41.0237 29.8942 41.0597 29.6902C40.8437 29.7022 40.6277 29.7142 40.4117 29.7262C40.2077 29.7262 39.9977 29.7322 39.7817 29.7442V29.0062H40.3397C40.8557 29.0062 41.2097 28.9582 41.4017 28.8622C41.6057 28.7542 41.7737 28.6402 41.9057 28.5202H42.4277C42.4517 28.7122 42.4697 28.9522 42.4817 29.2402C42.4937 29.5162 42.5057 29.8702 42.5177 30.3022C42.6977 30.0022 42.9437 29.7082 43.2557 29.4202C43.5677 29.1322 43.9157 28.8922 44.2997 28.7002C44.6957 28.5082 45.1097 28.4122 45.5417 28.4122C45.8777 28.4122 46.1717 28.5022 46.4237 28.6822C46.6757 28.8622 46.8017 29.1502 46.8017 29.5462C46.8017 29.6422 46.7717 29.7622 46.7117 29.9062C46.6517 30.0382 46.5557 30.1582 46.4237 30.2662C46.2917 30.3622 46.1177 30.4102 45.9017 30.4102C45.6377 30.3982 45.4277 30.2962 45.2717 30.1042C45.1157 29.9002 45.0557 29.6662 45.0917 29.4022C44.7917 29.3902 44.4797 29.4682 44.1557 29.6362C43.8437 29.8042 43.5497 30.0382 43.2737 30.3382C42.9977 30.6262 42.7517 30.9682 42.5357 31.3642L42.5537 35.7922C42.5537 36.0322 42.5477 36.2482 42.5357 36.4402C42.5357 36.6202 42.5177 36.8122 42.4817 37.0162C42.6737 37.0042 42.8597 36.9982 43.0397 36.9982C43.2317 36.9862 43.4237 36.9742 43.6157 36.9622V37.7002H39.9257V37.1602Z" fill="black"/>
<path d="M49.9624 54.4515C49.9624 53.9235 49.8904 53.5455 49.7464 53.3175C49.6024 53.0895 49.3744 52.9515 49.0624 52.9035C48.7504 52.8555 48.3364 52.8435 47.8204 52.8675L46.5064 52.9215V57.0435C46.5064 57.3675 46.5004 57.6435 46.4884 57.8715C46.4884 58.0995 46.4764 58.2915 46.4524 58.4475L49.8904 58.3935C50.4184 58.3815 50.8744 58.2975 51.2584 58.1415C51.6424 57.9735 51.9424 57.6855 52.1584 57.2775C52.3744 56.8695 52.4824 56.3115 52.4824 55.6035H53.0944L52.9864 59.1135H43.6984V58.5195C44.1544 58.4955 44.4664 58.3935 44.6344 58.2135C44.8024 58.0215 44.8924 57.7635 44.9044 57.4395C44.9284 57.1035 44.9404 56.7255 44.9404 56.3055V48.5295C44.9404 48.2895 44.9464 48.0615 44.9584 47.8455C44.9704 47.6175 44.9824 47.4135 44.9944 47.2335C44.7784 47.2455 44.5624 47.2575 44.3464 47.2695C44.1304 47.2815 43.9144 47.2935 43.6984 47.3055V46.5135H52.3564L52.4464 49.6635H51.8524C51.8524 48.9555 51.7444 48.4215 51.5284 48.0615C51.3124 47.6895 51.0184 47.4435 50.6464 47.3235C50.2864 47.1915 49.8784 47.1315 49.4224 47.1435L47.8744 47.1795C47.4304 47.1915 47.1124 47.2755 46.9204 47.4315C46.7284 47.5875 46.6084 47.8215 46.5604 48.1335C46.5244 48.4335 46.5064 48.8295 46.5064 49.3215V52.2015L49.8904 52.2195L49.7644 50.6715H50.5564V54.4515H49.9624ZM54.6977 59.1135V58.5735C55.0697 58.5735 55.3277 58.4835 55.4717 58.3035C55.6157 58.1115 55.6997 57.8535 55.7237 57.5295C55.7477 57.1935 55.7597 56.8095 55.7597 56.3775L55.7777 52.2735C55.7777 52.0815 55.7777 51.8895 55.7777 51.6975C55.7897 51.5055 55.8137 51.3075 55.8497 51.1035C55.6337 51.1155 55.4177 51.1275 55.2017 51.1395C54.9977 51.1515 54.7877 51.1635 54.5717 51.1755V50.4195C55.0997 50.4195 55.4957 50.3955 55.7597 50.3475C56.0357 50.2995 56.2397 50.2395 56.3717 50.1675C56.5037 50.0955 56.6117 50.0175 56.6957 49.9335H57.2177C57.2297 50.0175 57.2357 50.1135 57.2357 50.2215C57.2477 50.3295 57.2597 50.4495 57.2717 50.5815C57.2837 50.7135 57.2897 50.8635 57.2897 51.0315C57.5537 50.8035 57.8417 50.5995 58.1537 50.4195C58.4777 50.2395 58.8137 50.0955 59.1617 49.9875C59.5217 49.8795 59.8757 49.8255 60.2237 49.8255C61.2677 49.8255 62.0297 50.1555 62.5097 50.8155C62.9897 51.4635 63.2297 52.4775 63.2297 53.8575V57.2055C63.2297 57.4455 63.2237 57.6615 63.2117 57.8535C63.2117 58.0335 63.1937 58.2255 63.1577 58.4295C63.3497 58.4175 63.5357 58.4115 63.7157 58.4115C63.9077 58.3995 64.0997 58.3875 64.2917 58.3755V59.1135H60.6197V58.5735C60.9917 58.5735 61.2497 58.4835 61.3937 58.3035C61.5377 58.1115 61.6217 57.8535 61.6457 57.5295C61.6697 57.1935 61.6817 56.8095 61.6817 56.3775V53.8575C61.6697 52.8255 61.4957 52.0455 61.1597 51.5175C60.8357 50.9895 60.3197 50.7315 59.6117 50.7435C59.1797 50.7555 58.7537 50.8695 58.3337 51.0855C57.9257 51.3015 57.5837 51.5775 57.3077 51.9135C57.3197 52.0095 57.3257 52.1175 57.3257 52.2375C57.3257 52.3575 57.3257 52.4835 57.3257 52.6155L57.3077 57.2055C57.3077 57.4455 57.3017 57.6615 57.2897 57.8535C57.2897 58.0335 57.2717 58.2255 57.2357 58.4295C57.4277 58.4175 57.6137 58.4115 57.7937 58.4115C57.9857 58.3995 58.1777 58.3875 58.3697 58.3755V59.1135H54.6977Z" fill="black"/>
<path d="M18.9341 33.0512C18.7389 33.2464 18.7389 33.563 18.9341 33.7583L22.1161 36.9403C22.3114 37.1355 22.6279 37.1355 22.8232 36.9403C23.0185 36.745 23.0185 36.4284 22.8232 36.2332L19.9948 33.4047L22.8232 30.5763C23.0185 30.381 23.0185 30.0645 22.8232 29.8692C22.6279 29.6739 22.3114 29.6739 22.1161 29.8692L18.9341 33.0512ZM28.3288 32.9047L19.2877 32.9047V33.9047L28.3288 33.9047V32.9047Z" fill="black"/>
<path d="M69.4103 46.8632C69.6056 46.6679 69.6056 46.3513 69.4103 46.1561L66.2283 42.9741C66.0331 42.7788 65.7165 42.7788 65.5212 42.9741C65.326 43.1694 65.326 43.486 65.5212 43.6812L68.3497 46.5096L65.5212 49.3381C65.326 49.5333 65.326 49.8499 65.5212 50.0452C65.7165 50.2404 66.0331 50.2404 66.2283 50.0452L69.4103 46.8632ZM60.7906 47.0096L69.0568 47.0096L69.0568 46.0096L60.7906 46.0096L60.7906 47.0096Z" fill="black"/>
<path d="M28.9315 38.8865H59.7574" stroke="black"/>
<path d="M28.9315 42.9979H59.7574" stroke="black"/>
<path d="M88 67.0919C88 74.8179 84.6653 76.6123 78.3881 79.9153C70.5878 79.9153 58.3796 81.2296 58.3796 73.5036C58.3796 65.7776 67.0569 56.0172 74.8572 56.0172C84.6653 56.0172 88 59.3659 88 67.0919Z" fill="#64C998" fill-opacity="0.5"/>
</svg>
