<svg width="971" height="1001" viewBox="0 0 971 1001" fill="none" xmlns="http://www.w3.org/2000/svg">
<path opacity="0.5" d="M318.337 43.2856C198.401 132.898 179.815 302.351 98.5871 427.361C70.3109 470.861 33.7742 509.791 14.7116 558.048C-29.053 668.504 31.1796 793.797 111.799 881.526C150.241 923.376 195.144 961.718 249.473 979.358C291.252 992.924 336.049 993.489 380.025 993.842L1150.47 1000.91C1236.49 1001.68 1332.07 998.882 1393.92 939.674C1436.54 898.906 1453.86 839.369 1468.55 782.539C1486.61 712.709 1502.97 636.874 1474.88 570.365C1442.79 494.271 1361.64 451.148 1311.23 385.487C1229.42 279.105 1231.3 118.202 1127.12 33.2762C1078.48 -6.36071 1014.31 -21.9046 951.771 -29.6766C833.874 -44.3491 722.199 -16.6527 606.42 -20.5151C507.454 -23.8123 400.438 -18.0657 318.337 43.2856Z" fill="#E7ECFF"/>
</svg>
